{"title":"\nAmerican Made 2017 Movies HD Cam XviD Clean Audio New +Sample ☻r","magnet":"magnet:?xt=urn:btih:2086779233f80b3ac6dad3a67beb5d84241df5e5&dn=American+Made+2017+Movies+HD+Cam+XviD+Clean+Audio+New+%2BSample+%E2%98%BBr&tr=udp%3A%2F%2Ftracker.leechers-paradise.org%3A6969&tr=udp%3A%2F%2Fzer0day.ch%3A1337&tr=udp%3A%2F%2Fopen.demonii.com%3A1337&tr=udp%3A%2F%2Ftracker.coppersurfer.tk%3A6969&tr=udp%3A%2F%2Fexodus.desync.com%3A6969","uploader":"basicssom","categoryP":"video","categoryS":"movies","size":"739060883","seeders":"3","leechers":"228","description":"----------------------------------------------------------------\r\nAmerican Made 2017 Movies HD Cam XviD Clean Audio AAC New Source with Sample &#x263B;rDX&#x263B;\r\n\r\nSCREEN SHOTS &amp; POSTER:\r\n   <a href=\"\nhttp://postimage.co.nr/2017/9/banking/index.html\" rel=\"nofollow\" target=\"_NEW\">\nhttp://postimage.co.nr/2017/9/banking/index.html</a>  <a href=\"\nhttp://postimage.co.nr/2017/9/banking/1.html\" rel=\"nofollow\" target=\"_NEW\">\nhttp://postimage.co.nr/2017/9/banking/1.html</a>   <a href=\"\nhttp://postimage.co.nr/2017/9/banking/2.html\" rel=\"nofollow\" target=\"_NEW\">\nhttp://postimage.co.nr/2017/9/banking/2.html</a>   <a href=\"\nhttp://postimage.co.nr/2017/9/banking/3.html\" rel=\"nofollow\" target=\"_NEW\">\nhttp://postimage.co.nr/2017/9/banking/3.html</a>   <a href=\"\nhttp://postimage.co.nr/2017/9/banking/4.html\" rel=\"nofollow\" target=\"_NEW\">\nhttp://postimage.co.nr/2017/9/banking/4.html</a>   <a href=\"\nhttp://postimage.co.nr/2017/9/banking/5.html\" rel=\"nofollow\" target=\"_NEW\">\nhttp://postimage.co.nr/2017/9/banking/5.html</a>   <a href=\"\nhttp://postimage.co.nr/2017/9/banking/6.html\" rel=\"nofollow\" target=\"_NEW\">\nhttp://postimage.co.nr/2017/9/banking/6.html</a>   <a href=\"\nhttp://postimage.co.nr/2017/9/banking/7.html\" rel=\"nofollow\" target=\"_NEW\">\nhttp://postimage.co.nr/2017/9/banking/7.html</a>   <a href=\"\nhttp://postimage.co.nr/2017/9/banking/8.html\" rel=\"nofollow\" target=\"_NEW\">\nhttp://postimage.co.nr/2017/9/banking/8.html</a>   <a href=\"\nhttp://postimage.co.nr/2017/9/banking/9.html\" rel=\"nofollow\" target=\"_NEW\">\nhttp://postimage.co.nr/2017/9/banking/9.html</a>   <a href=\"\nhttp://postimage.co.nr/2017/9/banking/10.html\" rel=\"nofollow\" target=\"_NEW\">\nhttp://postimage.co.nr/2017/9/banking/10.html</a>\r\n\r\nFile size                                : 698 MiB\r\nDuration                                 : 1 h 45 min\r\nOverall bit rate mode                    : Constant\r\nOverall bit rate                         : 924 kb/s\r\nMovie name                               : American Made 2017 Movies HD Cam XviD Clean Audio AAC New Source &#x263B;rDX&#x263B;\r\n\r\nVideo\r\nID                                       : 2\r\nFormat                                   : AVC\r\nFormat/Info                              : Advanced Video Codec\r\nFormat profile                           : <a href=\"/cdn-cgi/l/email-protection\" class=\"__cf_email__\" data-cfemail=\"0d406c64634d413e\">[email&#xA0;protected]</a>\r\nFormat settings, CABAC                   : Yes\r\nFormat settings, ReFrames                : 2 frames\r\nFormat settings, GOP                     : M=1, N=12\r\nCodec ID                                 : V_MPEG4/ISO/AVC\r\nDuration                                 : 1 h 45 min\r\nBit rate mode                            : Constant\r\nBit rate                                 : 733 kb/s\r\nWidth                                    : 720 pixels\r\nHeight                                   : 304 pixels\r\nDisplay aspect ratio                     : 2.35:1\r\nFrame rate mode                          : Constant\r\nFrame rate                               : 29.970 (30000/1001) FPS\r\nColor space                              : YUV\r\nChroma subsampling                       : 4:2:0\r\nBit depth                                : 8 bits\r\nScan type                                : Progressive\r\nBits/(Pixel*Frame)                       : 0.112\r\nStream size                              : 539 MiB (77%)\r\nTitle                                    : &#x263B;rDX&#x263B;\r\nDefault                                  : Yes\r\nForced                                   : No\r\n\r\nAudio\r\nID                                       : 1\r\nFormat                                   : MPEG Audio\r\nFormat version                           : Version 1\r\nFormat profile                           : Layer 3\r\nMode                                     : Joint stereo\r\nMode extension                           : MS Stereo\r\nCodec ID                                 : A_MPEG/L3\r\nCodec ID/Hint                            : MP3\r\nDuration                                 : 1 h 45 min\r\nBit rate mode                            : Constant\r\nBit rate                                 : 192 kb/s\r\nChannel(s)                               : 2 channels\r\nSampling rate                            : 48.0 kHz\r\nCompression mode                         : Lossy\r\nStream size                              : 145 MiB (21%)\r\nTitle                                    : &#x263B;rDX&#x263B;\r\nDefault                                  : Yes\r\nForced                                   : No","last_updated":"2017-09-27T12:12:15.517Z","parsed":{"xt":"urn:btih:2086779233f80b3ac6dad3a67beb5d84241df5e5","dn":"American Made 2017 Movies HD Cam XviD Clean Audio New  Sample ☻r","tr":["udp://exodus.desync.com:6969","udp://open.demonii.com:1337","udp://tracker.coppersurfer.tk:6969","udp://tracker.leechers-paradise.org:6969","udp://zer0day.ch:1337"],"infoHash":"2086779233f80b3ac6dad3a67beb5d84241df5e5","infoHashBuffer":{"type":"Buffer","data":[32,134,119,146,51,248,11,58,198,218,211,166,123,235,93,132,36,29,245,229]},"name":"American Made 2017 Movies HD Cam XviD Clean Audio New  Sample ☻r","announce":["udp://exodus.desync.com:6969","udp://open.demonii.com:1337","udp://tracker.coppersurfer.tk:6969","udp://tracker.leechers-paradise.org:6969","udp://zer0day.ch:1337"],"urlList":[]}}